<svg width="90" height="32" viewBox="0 0 90 32" fill="none" xmlns="http://www.w3.org/2000/svg">
<rect width="90" height="32" rx="4" fill="white"/>
<g clip-path="url(#clip0_150_729)">
<path d="M15.5992 19.8798C15.4294 20.0396 15.2058 20.1299 14.9726 20.1331C14.7435 20.1292 14.5243 20.0387 14.3593 19.8798L9.79925 15.3598C9.63559 15.1949 9.54375 14.9721 9.54375 14.7398C9.54375 14.5075 9.63559 14.2846 9.79925 14.1198L10.6659 13.2264C10.7466 13.1438 10.8431 13.0781 10.9495 13.0333C11.056 12.9884 11.1704 12.9653 11.2859 12.9653C11.4014 12.9653 11.5158 12.9884 11.6223 13.0333C11.7288 13.0781 11.8252 13.1438 11.9059 13.2264L14.9326 16.2264L20.7859 10.4398C20.8651 10.3575 20.9605 10.2925 21.066 10.2489C21.1716 10.2053 21.2851 10.184 21.3992 10.1864C21.5155 10.1838 21.631 10.2049 21.7387 10.2484C21.8465 10.292 21.9442 10.3571 22.0259 10.4398L22.9326 11.3331C23.0922 11.4974 23.1815 11.7174 23.1815 11.9464C23.1815 12.1755 23.0922 12.3955 22.9326 12.5598L15.5992 19.8798L25.4926 22.6664C29.1726 17.4131 27.7326 6.85311 27.6793 6.39978C27.6525 6.23116 27.578 6.07372 27.4646 5.94612C27.3512 5.81852 27.2036 5.72609 27.0393 5.67978L16.2393 1.99978C16.0818 1.95971 15.9167 1.95971 15.7592 1.99978L4.95925 5.67978C4.79492 5.72609 4.64731 5.81852 4.53388 5.94612C4.42046 6.07372 4.34597 6.23116 4.31925 6.39978C4.31925 6.85311 2.82592 17.4131 6.50592 22.6664C8.76185 25.8919 12.0565 28.2452 15.8393 29.3331H15.9993H16.1992C19.982 28.2452 23.2767 25.8919 25.5326 22.6664L15.5992 19.8798Z" fill="#BAC1CA"/>
</g>
<path d="M37.8125 5.21023C37.7822 4.94129 37.6572 4.73295 37.4375 4.58523C37.2178 4.43561 36.9413 4.3608 36.608 4.3608C36.3693 4.3608 36.1629 4.39867 35.9886 4.47443C35.8144 4.5483 35.679 4.65057 35.5824 4.78125C35.4877 4.91004 35.4403 5.05682 35.4403 5.22159C35.4403 5.35985 35.4725 5.47917 35.5369 5.57955C35.6032 5.67992 35.6894 5.7642 35.7955 5.83239C35.9034 5.89867 36.0189 5.95455 36.142 6C36.2652 6.04356 36.3835 6.07955 36.4972 6.10795L37.0653 6.25568C37.2509 6.30114 37.4413 6.36269 37.6364 6.44034C37.8314 6.51799 38.0123 6.62027 38.179 6.74716C38.3456 6.87405 38.4801 7.03125 38.5824 7.21875C38.6866 7.40625 38.7386 7.63068 38.7386 7.89205C38.7386 8.22159 38.6534 8.5142 38.483 8.76989C38.3144 9.02557 38.0691 9.22727 37.7472 9.375C37.4271 9.52273 37.0398 9.59659 36.5852 9.59659C36.1496 9.59659 35.7727 9.52746 35.4545 9.3892C35.1364 9.25095 34.8873 9.05492 34.7074 8.80114C34.5275 8.54545 34.428 8.24242 34.4091 7.89205H35.2898C35.3068 8.10227 35.375 8.27746 35.4943 8.41761C35.6155 8.55587 35.7699 8.65909 35.9574 8.72727C36.1468 8.79356 36.3542 8.8267 36.5795 8.8267C36.8277 8.8267 37.0483 8.78788 37.2415 8.71023C37.4366 8.63068 37.59 8.52083 37.7017 8.38068C37.8134 8.23864 37.8693 8.07292 37.8693 7.88352C37.8693 7.71117 37.8201 7.57008 37.7216 7.46023C37.625 7.35038 37.4934 7.25947 37.3267 7.1875C37.1619 7.11553 36.9754 7.05208 36.767 6.99716L36.0795 6.80966C35.6136 6.68277 35.2443 6.49621 34.9716 6.25C34.7008 6.00379 34.5653 5.67803 34.5653 5.27273C34.5653 4.9375 34.6563 4.64489 34.8381 4.39489C35.0199 4.14489 35.2661 3.95076 35.5767 3.8125C35.8873 3.67235 36.2377 3.60227 36.6278 3.60227C37.0218 3.60227 37.3693 3.6714 37.6705 3.80966C37.9735 3.94792 38.2121 4.13826 38.3864 4.38068C38.5606 4.62121 38.6515 4.89773 38.6591 5.21023H37.8125ZM41.7564 5.13636V5.81818H39.3729V5.13636H41.7564ZM40.0121 4.09091H40.8615V8.21875C40.8615 8.38352 40.8861 8.50758 40.9354 8.59091C40.9846 8.67235 41.0481 8.72822 41.1257 8.75852C41.2053 8.78693 41.2914 8.80114 41.3842 8.80114C41.4524 8.80114 41.5121 8.7964 41.5632 8.78693C41.6143 8.77746 41.6541 8.76989 41.6825 8.7642L41.8359 9.46591C41.7867 9.48485 41.7166 9.50379 41.6257 9.52273C41.5348 9.54356 41.4212 9.55492 41.2848 9.55682C41.0613 9.56061 40.853 9.52083 40.6598 9.4375C40.4666 9.35417 40.3104 9.22538 40.1911 9.05114C40.0717 8.87689 40.0121 8.65814 40.0121 8.39489V4.09091ZM42.696 9.5V5.13636H43.517V5.82955H43.5625C43.642 5.5947 43.7822 5.41004 43.983 5.27557C44.1856 5.1392 44.4148 5.07102 44.6705 5.07102C44.7235 5.07102 44.786 5.07292 44.858 5.0767C44.9318 5.08049 44.9896 5.08523 45.0312 5.09091V5.90341C44.9972 5.89394 44.9366 5.88352 44.8494 5.87216C44.7623 5.8589 44.6752 5.85227 44.5881 5.85227C44.3873 5.85227 44.2083 5.89489 44.0511 5.98011C43.8958 6.06345 43.7727 6.17992 43.6818 6.32955C43.5909 6.47727 43.5455 6.64583 43.5455 6.83523V9.5H42.696ZM47.4482 9.58807C47.0391 9.58807 46.6821 9.49432 46.3771 9.30682C46.0722 9.11932 45.8355 8.85701 45.6669 8.51989C45.4983 8.18277 45.4141 7.78883 45.4141 7.33807C45.4141 6.88542 45.4983 6.48958 45.6669 6.15057C45.8355 5.81155 46.0722 5.5483 46.3771 5.3608C46.6821 5.1733 47.0391 5.07955 47.4482 5.07955C47.8572 5.07955 48.2143 5.1733 48.5192 5.3608C48.8241 5.5483 49.0608 5.81155 49.2294 6.15057C49.398 6.48958 49.4822 6.88542 49.4822 7.33807C49.4822 7.78883 49.398 8.18277 49.2294 8.51989C49.0608 8.85701 48.8241 9.11932 48.5192 9.30682C48.2143 9.49432 47.8572 9.58807 47.4482 9.58807ZM47.451 8.875C47.7161 8.875 47.9358 8.80492 48.1101 8.66477C48.2843 8.52462 48.4131 8.33807 48.4964 8.10511C48.5817 7.87216 48.6243 7.61553 48.6243 7.33523C48.6243 7.05682 48.5817 6.80114 48.4964 6.56818C48.4131 6.33333 48.2843 6.14489 48.1101 6.00284C47.9358 5.8608 47.7161 5.78977 47.451 5.78977C47.1839 5.78977 46.9624 5.8608 46.7862 6.00284C46.612 6.14489 46.4822 6.33333 46.397 6.56818C46.3137 6.80114 46.272 7.05682 46.272 7.33523C46.272 7.61553 46.3137 7.87216 46.397 8.10511C46.4822 8.33807 46.612 8.52462 46.7862 8.66477C46.9624 8.80492 47.1839 8.875 47.451 8.875ZM51.2798 6.90909V9.5H50.4304V5.13636H51.2457V5.84659H51.2997C51.4001 5.61553 51.5573 5.42992 51.7713 5.28977C51.9872 5.14962 52.259 5.07955 52.5866 5.07955C52.884 5.07955 53.1444 5.14205 53.3679 5.26705C53.5914 5.39015 53.7647 5.57386 53.8878 5.81818C54.0109 6.0625 54.0724 6.36458 54.0724 6.72443V9.5H53.223V6.8267C53.223 6.51042 53.1406 6.26326 52.9759 6.08523C52.8111 5.9053 52.5848 5.81534 52.2969 5.81534C52.0999 5.81534 51.9247 5.85795 51.7713 5.94318C51.6198 6.02841 51.4995 6.15341 51.4105 6.31818C51.3234 6.48106 51.2798 6.67803 51.2798 6.90909ZM57.0412 11.2273C56.6946 11.2273 56.3963 11.1818 56.1463 11.0909C55.8982 11 55.6955 10.8797 55.5384 10.7301C55.3812 10.5805 55.2637 10.4167 55.1861 10.2386L55.9162 9.9375C55.9673 10.0208 56.0355 10.1089 56.1207 10.2017C56.2079 10.2964 56.3253 10.3769 56.473 10.4432C56.6226 10.5095 56.8149 10.5426 57.0497 10.5426C57.3717 10.5426 57.6378 10.464 57.848 10.3068C58.0582 10.1515 58.1634 9.90341 58.1634 9.5625V8.70455H58.1094C58.0582 8.79735 57.9844 8.90057 57.8878 9.0142C57.7931 9.12784 57.6624 9.22633 57.4957 9.30966C57.3291 9.39299 57.1122 9.43466 56.8452 9.43466C56.5005 9.43466 56.1899 9.35417 55.9134 9.19318C55.6387 9.0303 55.4209 8.79072 55.2599 8.47443C55.1009 8.15625 55.0213 7.76515 55.0213 7.30114C55.0213 6.83712 55.0999 6.43939 55.2571 6.10795C55.4162 5.77652 55.634 5.52273 55.9105 5.34659C56.187 5.16856 56.5005 5.07955 56.8509 5.07955C57.1217 5.07955 57.3404 5.125 57.5071 5.21591C57.6738 5.30492 57.8035 5.40909 57.8963 5.52841C57.991 5.64773 58.0639 5.75284 58.1151 5.84375H58.1776V5.13636H59.0099V9.59659C59.0099 9.97159 58.9228 10.2794 58.7486 10.5199C58.5743 10.7604 58.3385 10.9384 58.0412 11.054C57.7457 11.1695 57.4124 11.2273 57.0412 11.2273ZM57.0327 8.73011C57.277 8.73011 57.4834 8.6733 57.652 8.55966C57.8224 8.44413 57.9512 8.27936 58.0384 8.06534C58.1274 7.84943 58.1719 7.59091 58.1719 7.28977C58.1719 6.99621 58.1283 6.73769 58.0412 6.5142C57.9541 6.29072 57.8262 6.11648 57.6577 5.99148C57.4891 5.86458 57.2808 5.80114 57.0327 5.80114C56.777 5.80114 56.5639 5.86742 56.3935 6C56.223 6.13068 56.0942 6.30871 56.0071 6.53409C55.9219 6.75947 55.8793 7.01136 55.8793 7.28977C55.8793 7.57576 55.9228 7.8267 56.0099 8.04261C56.0971 8.25852 56.2259 8.42708 56.3963 8.5483C56.5687 8.66951 56.7808 8.73011 57.0327 8.73011ZM36.4091 19.5881C35.9867 19.5881 35.6231 19.4924 35.3182 19.3011C35.0152 19.108 34.7822 18.8419 34.6193 18.5028C34.4564 18.1638 34.375 17.7756 34.375 17.3381C34.375 16.8949 34.4583 16.5038 34.625 16.1648C34.7917 15.8239 35.0265 15.5578 35.3295 15.3665C35.6326 15.1752 35.9896 15.0795 36.4006 15.0795C36.732 15.0795 37.0275 15.1411 37.2869 15.2642C37.5464 15.3854 37.7557 15.5559 37.9148 15.7756C38.0758 15.9953 38.1714 16.2519 38.2017 16.5455H37.375C37.3295 16.3409 37.2254 16.1648 37.0625 16.017C36.9015 15.8693 36.6856 15.7955 36.4148 15.7955C36.178 15.7955 35.9706 15.858 35.7926 15.983C35.6165 16.1061 35.4792 16.2822 35.3807 16.5114C35.2822 16.7386 35.233 17.0076 35.233 17.3182C35.233 17.6364 35.2813 17.911 35.3778 18.142C35.4744 18.3731 35.6108 18.5521 35.7869 18.679C35.965 18.8059 36.1742 18.8693 36.4148 18.8693C36.5758 18.8693 36.7216 18.84 36.8523 18.7812C36.9848 18.7206 37.0956 18.6345 37.1847 18.5227C37.2756 18.411 37.339 18.2765 37.375 18.1193H38.2017C38.1714 18.4015 38.0795 18.6534 37.9261 18.875C37.7727 19.0966 37.5672 19.2708 37.3097 19.3977C37.054 19.5246 36.7538 19.5881 36.4091 19.5881ZM41.8743 17.6903V15.1364H42.7266V19.5H41.8913V18.7443H41.8459C41.7455 18.9773 41.5845 19.1714 41.3629 19.3267C41.1432 19.4801 40.8696 19.5568 40.5419 19.5568C40.2616 19.5568 40.0135 19.4953 39.7976 19.3722C39.5836 19.2472 39.415 19.0625 39.2919 18.8182C39.1707 18.5739 39.1101 18.2718 39.1101 17.9119V15.1364H39.9595V17.8097C39.9595 18.107 40.0419 18.3437 40.2067 18.5199C40.3714 18.696 40.5855 18.7841 40.8487 18.7841C41.0078 18.7841 41.166 18.7443 41.3232 18.6648C41.4822 18.5852 41.6139 18.465 41.718 18.304C41.8241 18.143 41.8762 17.9384 41.8743 17.6903ZM47.1378 16.2017L46.3679 16.3381C46.3357 16.2396 46.2846 16.1458 46.2145 16.0568C46.1463 15.9678 46.0535 15.8949 45.9361 15.8381C45.8187 15.7812 45.6719 15.7528 45.4957 15.7528C45.2552 15.7528 45.0545 15.8068 44.8935 15.9148C44.7325 16.0208 44.652 16.1581 44.652 16.3267C44.652 16.4725 44.706 16.59 44.8139 16.679C44.9219 16.768 45.0961 16.8409 45.3366 16.8977L46.0298 17.0568C46.4313 17.1496 46.7306 17.2926 46.9276 17.4858C47.1245 17.679 47.223 17.9299 47.223 18.2386C47.223 18.5 47.1473 18.733 46.9957 18.9375C46.8461 19.1402 46.6368 19.2992 46.3679 19.4148C46.1009 19.5303 45.7912 19.5881 45.4389 19.5881C44.9503 19.5881 44.5516 19.4839 44.2429 19.2756C43.9342 19.0653 43.7448 18.767 43.6747 18.3807L44.4957 18.2557C44.5469 18.4697 44.652 18.6316 44.8111 18.7415C44.9702 18.8494 45.1776 18.9034 45.4332 18.9034C45.7116 18.9034 45.9342 18.8456 46.1009 18.7301C46.2675 18.6127 46.3509 18.4697 46.3509 18.3011C46.3509 18.1648 46.2997 18.0502 46.1974 17.9574C46.0971 17.8646 45.9427 17.7945 45.7344 17.7472L44.9957 17.5852C44.5885 17.4924 44.2874 17.3447 44.0923 17.142C43.8991 16.9394 43.8026 16.6828 43.8026 16.3722C43.8026 16.1146 43.8745 15.8892 44.0185 15.696C44.1624 15.5028 44.3613 15.3523 44.6151 15.2443C44.8688 15.1345 45.1596 15.0795 45.4872 15.0795C45.9588 15.0795 46.33 15.1818 46.6009 15.3864C46.8717 15.589 47.0507 15.8608 47.1378 16.2017ZM50.1939 15.1364V15.8182H47.8104V15.1364H50.1939ZM48.4496 14.0909H49.299V18.2188C49.299 18.3835 49.3236 18.5076 49.3729 18.5909C49.4221 18.6723 49.4856 18.7282 49.5632 18.7585C49.6428 18.7869 49.7289 18.8011 49.8217 18.8011C49.8899 18.8011 49.9496 18.7964 50.0007 18.7869C50.0518 18.7775 50.0916 18.7699 50.12 18.7642L50.2734 19.4659C50.2242 19.4848 50.1541 19.5038 50.0632 19.5227C49.9723 19.5436 49.8587 19.5549 49.7223 19.5568C49.4988 19.5606 49.2905 19.5208 49.0973 19.4375C48.9041 19.3542 48.7479 19.2254 48.6286 19.0511C48.5092 18.8769 48.4496 18.6581 48.4496 18.3949V14.0909ZM52.9247 19.5881C52.5156 19.5881 52.1586 19.4943 51.8537 19.3068C51.5488 19.1193 51.312 18.857 51.1435 18.5199C50.9749 18.1828 50.8906 17.7888 50.8906 17.3381C50.8906 16.8854 50.9749 16.4896 51.1435 16.1506C51.312 15.8116 51.5488 15.5483 51.8537 15.3608C52.1586 15.1733 52.5156 15.0795 52.9247 15.0795C53.3338 15.0795 53.6908 15.1733 53.9957 15.3608C54.3007 15.5483 54.5374 15.8116 54.706 16.1506C54.8745 16.4896 54.9588 16.8854 54.9588 17.3381C54.9588 17.7888 54.8745 18.1828 54.706 18.5199C54.5374 18.857 54.3007 19.1193 53.9957 19.3068C53.6908 19.4943 53.3338 19.5881 52.9247 19.5881ZM52.9276 18.875C53.1927 18.875 53.4124 18.8049 53.5866 18.6648C53.7609 18.5246 53.8897 18.3381 53.973 18.1051C54.0582 17.8722 54.1009 17.6155 54.1009 17.3352C54.1009 17.0568 54.0582 16.8011 53.973 16.5682C53.8897 16.3333 53.7609 16.1449 53.5866 16.0028C53.4124 15.8608 53.1927 15.7898 52.9276 15.7898C52.6605 15.7898 52.4389 15.8608 52.2628 16.0028C52.0885 16.1449 51.9588 16.3333 51.8736 16.5682C51.7902 16.8011 51.7486 17.0568 51.7486 17.3352C51.7486 17.6155 51.7902 17.8722 51.8736 18.1051C51.9588 18.3381 52.0885 18.5246 52.2628 18.6648C52.4389 18.8049 52.6605 18.875 52.9276 18.875ZM55.907 19.5V15.1364H56.7223V15.8466H56.7763C56.8672 15.6061 57.0159 15.4186 57.2223 15.2841C57.4287 15.1477 57.6759 15.0795 57.9638 15.0795C58.2554 15.0795 58.4998 15.1477 58.6967 15.2841C58.8956 15.4205 59.0424 15.608 59.1371 15.8466H59.1825C59.2867 15.6136 59.4524 15.428 59.6797 15.2898C59.907 15.1496 60.1778 15.0795 60.4922 15.0795C60.888 15.0795 61.2109 15.2036 61.4609 15.4517C61.7128 15.6998 61.8388 16.0739 61.8388 16.5739V19.5H60.9893V16.6534C60.9893 16.358 60.9089 16.1439 60.7479 16.0114C60.5869 15.8788 60.3946 15.8125 60.1712 15.8125C59.8946 15.8125 59.6797 15.8977 59.5263 16.0682C59.3729 16.2367 59.2962 16.4536 59.2962 16.7188V19.5H58.4496V16.5994C58.4496 16.3627 58.3757 16.1723 58.228 16.0284C58.0803 15.8845 57.888 15.8125 57.6513 15.8125C57.4903 15.8125 57.3416 15.8551 57.2053 15.9403C57.0708 16.0237 56.9619 16.1402 56.8786 16.2898C56.7971 16.4394 56.7564 16.6127 56.7564 16.8097V19.5H55.907ZM64.858 19.5881C64.428 19.5881 64.0578 19.4962 63.7472 19.3125C63.4384 19.1269 63.1998 18.8665 63.0312 18.5312C62.8646 18.1941 62.7812 17.7992 62.7812 17.3466C62.7812 16.8996 62.8646 16.5057 63.0312 16.1648C63.1998 15.8239 63.4347 15.5578 63.7358 15.3665C64.0388 15.1752 64.393 15.0795 64.7983 15.0795C65.0445 15.0795 65.2831 15.1203 65.5142 15.2017C65.7453 15.2831 65.9527 15.411 66.1364 15.5852C66.3201 15.7595 66.465 15.9858 66.571 16.2642C66.6771 16.5407 66.7301 16.8769 66.7301 17.2727V17.5739H63.2614V16.9375H65.8977C65.8977 16.714 65.8523 16.5161 65.7614 16.3438C65.6705 16.1695 65.5426 16.0322 65.3778 15.9318C65.215 15.8314 65.0237 15.7812 64.804 15.7812C64.5653 15.7812 64.357 15.84 64.179 15.9574C64.0028 16.0729 63.8665 16.2244 63.7699 16.4119C63.6752 16.5975 63.6278 16.7992 63.6278 17.017V17.5142C63.6278 17.8059 63.679 18.054 63.7812 18.2585C63.8854 18.4631 64.0303 18.6193 64.2159 18.7273C64.4015 18.8333 64.6184 18.8864 64.8665 18.8864C65.0275 18.8864 65.1742 18.8636 65.3068 18.8182C65.4394 18.7708 65.554 18.7008 65.6506 18.608C65.7472 18.5152 65.821 18.4006 65.8722 18.2642L66.6761 18.4091C66.6117 18.6458 66.4962 18.8532 66.3295 19.0312C66.1648 19.2074 65.9574 19.3447 65.7074 19.4432C65.4593 19.5398 65.1761 19.5881 64.858 19.5881ZM67.6726 19.5V15.1364H68.4936V15.8295H68.5391C68.6186 15.5947 68.7588 15.41 68.9595 15.2756C69.1622 15.1392 69.3913 15.071 69.647 15.071C69.7 15.071 69.7625 15.0729 69.8345 15.0767C69.9084 15.0805 69.9661 15.0852 70.0078 15.0909V15.9034C69.9737 15.8939 69.9131 15.8835 69.826 15.8722C69.7389 15.8589 69.6518 15.8523 69.5646 15.8523C69.3639 15.8523 69.1849 15.8949 69.0277 15.9801C68.8724 16.0634 68.7493 16.1799 68.6584 16.3295C68.5675 16.4773 68.522 16.6458 68.522 16.8352V19.5H67.6726ZM35.8409 29.5966C35.5644 29.5966 35.3144 29.5455 35.0909 29.4432C34.8674 29.339 34.6903 29.1884 34.5597 28.9915C34.4309 28.7945 34.3665 28.553 34.3665 28.267C34.3665 28.0208 34.4138 27.8182 34.5085 27.6591C34.6032 27.5 34.7311 27.3741 34.892 27.2812C35.053 27.1884 35.233 27.1184 35.4318 27.071C35.6307 27.0237 35.8333 26.9877 36.0398 26.9631C36.3011 26.9328 36.5133 26.9081 36.6761 26.8892C36.839 26.8684 36.9574 26.8352 37.0312 26.7898C37.1051 26.7443 37.142 26.6705 37.142 26.5682V26.5483C37.142 26.3002 37.072 26.108 36.9318 25.9716C36.7936 25.8352 36.5871 25.767 36.3125 25.767C36.0265 25.767 35.8011 25.8305 35.6364 25.9574C35.4735 26.0824 35.3608 26.2216 35.2983 26.375L34.5 26.1932C34.5947 25.928 34.733 25.714 34.9148 25.5511C35.0985 25.3864 35.3097 25.267 35.5483 25.1932C35.7869 25.1174 36.0379 25.0795 36.3011 25.0795C36.4754 25.0795 36.66 25.1004 36.8551 25.142C37.0521 25.1818 37.2358 25.2557 37.4062 25.3636C37.5786 25.4716 37.7197 25.6259 37.8295 25.8267C37.9394 26.0256 37.9943 26.2841 37.9943 26.6023V29.5H37.1648V28.9034H37.1307C37.0758 29.0133 36.9934 29.1212 36.8835 29.2273C36.7737 29.3333 36.6326 29.4214 36.4602 29.4915C36.2879 29.5616 36.0814 29.5966 35.8409 29.5966ZM36.0256 28.9148C36.2604 28.9148 36.4612 28.8684 36.6278 28.7756C36.7964 28.6828 36.9242 28.5616 37.0114 28.4119C37.1004 28.2604 37.1449 28.0985 37.1449 27.9261V27.3636C37.1146 27.3939 37.0559 27.4223 36.9688 27.4489C36.8835 27.4735 36.786 27.4953 36.6761 27.5142C36.5663 27.5312 36.4593 27.5473 36.3551 27.5625C36.2509 27.5758 36.1638 27.5871 36.0938 27.5966C35.929 27.6174 35.7784 27.6525 35.642 27.7017C35.5076 27.7509 35.3996 27.822 35.3182 27.9148C35.2386 28.0057 35.1989 28.1269 35.1989 28.2784C35.1989 28.4886 35.2765 28.6477 35.4318 28.7557C35.5871 28.8617 35.785 28.9148 36.0256 28.9148ZM41.8899 27.6903V25.1364H42.7422V29.5H41.907V28.7443H41.8615C41.7611 28.9773 41.6001 29.1714 41.3786 29.3267C41.1589 29.4801 40.8852 29.5568 40.5575 29.5568C40.2772 29.5568 40.0291 29.4953 39.8132 29.3722C39.5992 29.2472 39.4306 29.0625 39.3075 28.8182C39.1863 28.5739 39.1257 28.2718 39.1257 27.9119V25.1364H39.9751V27.8097C39.9751 28.107 40.0575 28.3437 40.2223 28.5199C40.3871 28.696 40.6011 28.7841 40.8643 28.7841C41.0234 28.7841 41.1816 28.7443 41.3388 28.6648C41.4979 28.5852 41.6295 28.465 41.7337 28.304C41.8397 28.143 41.8918 27.9384 41.8899 27.6903ZM45.9205 25.1364V25.8182H43.5369V25.1364H45.9205ZM44.1761 24.0909H45.0256V28.2188C45.0256 28.3835 45.0502 28.5076 45.0994 28.5909C45.1487 28.6723 45.2121 28.7282 45.2898 28.7585C45.3693 28.7869 45.4555 28.8011 45.5483 28.8011C45.6165 28.8011 45.6761 28.7964 45.7273 28.7869C45.7784 28.7775 45.8182 28.7699 45.8466 28.7642L46 29.4659C45.9508 29.4848 45.8807 29.5038 45.7898 29.5227C45.6989 29.5436 45.5852 29.5549 45.4489 29.5568C45.2254 29.5606 45.017 29.5208 44.8239 29.4375C44.6307 29.3542 44.4744 29.2254 44.3551 29.0511C44.2358 28.8769 44.1761 28.6581 44.1761 28.3949V24.0909ZM47.8033 26.9091V29.5H46.9538V23.6818H47.7919V25.8466H47.8459C47.9482 25.6117 48.1044 25.4252 48.3146 25.2869C48.5249 25.1487 48.7995 25.0795 49.1385 25.0795C49.4377 25.0795 49.6991 25.1411 49.9226 25.2642C50.148 25.3873 50.3222 25.571 50.4453 25.8153C50.5703 26.0578 50.6328 26.3608 50.6328 26.7244V29.5H49.7834V26.8267C49.7834 26.5066 49.701 26.2585 49.5362 26.0824C49.3714 25.9044 49.1423 25.8153 48.8487 25.8153C48.648 25.8153 48.468 25.858 48.3089 25.9432C48.1518 26.0284 48.0277 26.1534 47.9368 26.3182C47.8478 26.4811 47.8033 26.678 47.8033 26.9091ZM53.647 29.5881C53.2171 29.5881 52.8468 29.4962 52.5362 29.3125C52.2275 29.1269 51.9889 28.8665 51.8203 28.5312C51.6536 28.1941 51.5703 27.7992 51.5703 27.3466C51.5703 26.8996 51.6536 26.5057 51.8203 26.1648C51.9889 25.8239 52.2237 25.5578 52.5249 25.3665C52.8279 25.1752 53.1821 25.0795 53.5874 25.0795C53.8336 25.0795 54.0722 25.1203 54.3033 25.2017C54.5343 25.2831 54.7417 25.411 54.9254 25.5852C55.1091 25.7595 55.254 25.9858 55.3601 26.2642C55.4661 26.5407 55.5192 26.8769 55.5192 27.2727V27.5739H52.0504V26.9375H54.6868C54.6868 26.714 54.6413 26.5161 54.5504 26.3438C54.4595 26.1695 54.3317 26.0322 54.1669 25.9318C54.004 25.8314 53.8127 25.7812 53.593 25.7812C53.3544 25.7812 53.1461 25.84 52.968 25.9574C52.7919 26.0729 52.6555 26.2244 52.5589 26.4119C52.4643 26.5975 52.4169 26.7992 52.4169 27.017V27.5142C52.4169 27.8059 52.468 28.054 52.5703 28.2585C52.6745 28.4631 52.8194 28.6193 53.005 28.7273C53.1906 28.8333 53.4074 28.8864 53.6555 28.8864C53.8165 28.8864 53.9633 28.8636 54.0959 28.8182C54.2285 28.7708 54.343 28.7008 54.4396 28.608C54.5362 28.5152 54.6101 28.4006 54.6612 28.2642L55.4652 28.4091C55.4008 28.6458 55.2853 28.8532 55.1186 29.0312C54.9538 29.2074 54.7464 29.3447 54.4964 29.4432C54.2483 29.5398 53.9652 29.5881 53.647 29.5881ZM57.3111 26.9091V29.5H56.4616V25.1364H57.277V25.8466H57.331C57.4313 25.6155 57.5885 25.4299 57.8026 25.2898C58.0185 25.1496 58.2902 25.0795 58.6179 25.0795C58.9152 25.0795 59.1757 25.142 59.3991 25.267C59.6226 25.3902 59.7959 25.5739 59.919 25.8182C60.0421 26.0625 60.1037 26.3646 60.1037 26.7244V29.5H59.2543V26.8267C59.2543 26.5104 59.1719 26.2633 59.0071 26.0852C58.8423 25.9053 58.616 25.8153 58.3281 25.8153C58.1312 25.8153 57.956 25.858 57.8026 25.9432C57.651 26.0284 57.5308 26.1534 57.4418 26.3182C57.3546 26.4811 57.3111 26.678 57.3111 26.9091ZM63.2798 25.1364V25.8182H60.8963V25.1364H63.2798ZM61.5355 24.0909H62.3849V28.2188C62.3849 28.3835 62.4096 28.5076 62.4588 28.5909C62.508 28.6723 62.5715 28.7282 62.6491 28.7585C62.7287 28.7869 62.8149 28.8011 62.9077 28.8011C62.9759 28.8011 63.0355 28.7964 63.0866 28.7869C63.1378 28.7775 63.1776 28.7699 63.206 28.7642L63.3594 29.4659C63.3101 29.4848 63.2401 29.5038 63.1491 29.5227C63.0582 29.5436 62.9446 29.5549 62.8082 29.5568C62.5848 29.5606 62.3764 29.5208 62.1832 29.4375C61.9901 29.3542 61.8338 29.2254 61.7145 29.0511C61.5952 28.8769 61.5355 28.6581 61.5355 28.3949V24.0909ZM64.2195 29.5V25.1364H65.0689V29.5H64.2195ZM64.6484 24.4631C64.5007 24.4631 64.3738 24.4138 64.2678 24.3153C64.1636 24.215 64.1115 24.0956 64.1115 23.9574C64.1115 23.8172 64.1636 23.6979 64.2678 23.5994C64.3738 23.4991 64.5007 23.4489 64.6484 23.4489C64.7962 23.4489 64.9221 23.4991 65.0263 23.5994C65.1323 23.6979 65.1854 23.8172 65.1854 23.9574C65.1854 24.0956 65.1323 24.215 65.0263 24.3153C64.9221 24.4138 64.7962 24.4631 64.6484 24.4631ZM68.0497 29.5881C67.6274 29.5881 67.2637 29.4924 66.9588 29.3011C66.6558 29.108 66.4228 28.8419 66.2599 28.5028C66.0971 28.1638 66.0156 27.7756 66.0156 27.3381C66.0156 26.8949 66.099 26.5038 66.2656 26.1648C66.4323 25.8239 66.6671 25.5578 66.9702 25.3665C67.2732 25.1752 67.6302 25.0795 68.0412 25.0795C68.3726 25.0795 68.6681 25.1411 68.9276 25.2642C69.187 25.3854 69.3963 25.5559 69.5554 25.7756C69.7164 25.9953 69.812 26.2519 69.8423 26.5455H69.0156C68.9702 26.3409 68.866 26.1648 68.7031 26.017C68.5421 25.8693 68.3262 25.7955 68.0554 25.7955C67.8187 25.7955 67.6113 25.858 67.4332 25.983C67.2571 26.1061 67.1198 26.2822 67.0213 26.5114C66.9228 26.7386 66.8736 27.0076 66.8736 27.3182C66.8736 27.6364 66.9219 27.911 67.0185 28.142C67.1151 28.3731 67.2514 28.5521 67.4276 28.679C67.6056 28.8059 67.8149 28.8693 68.0554 28.8693C68.2164 28.8693 68.3622 28.84 68.4929 28.7812C68.6255 28.7206 68.7363 28.6345 68.8253 28.5227C68.9162 28.411 68.9796 28.2765 69.0156 28.1193H69.8423C69.812 28.4015 69.7202 28.6534 69.5668 28.875C69.4134 29.0966 69.2079 29.2708 68.9503 29.3977C68.6946 29.5246 68.3944 29.5881 68.0497 29.5881ZM72.0206 29.5966C71.7441 29.5966 71.4941 29.5455 71.2706 29.4432C71.0471 29.339 70.87 29.1884 70.7393 28.9915C70.6106 28.7945 70.5462 28.553 70.5462 28.267C70.5462 28.0208 70.5935 27.8182 70.6882 27.6591C70.7829 27.5 70.9107 27.3741 71.0717 27.2812C71.2327 27.1884 71.4126 27.1184 71.6115 27.071C71.8104 27.0237 72.013 26.9877 72.2195 26.9631C72.4808 26.9328 72.6929 26.9081 72.8558 26.8892C73.0187 26.8684 73.1371 26.8352 73.2109 26.7898C73.2848 26.7443 73.3217 26.6705 73.3217 26.5682V26.5483C73.3217 26.3002 73.2517 26.108 73.1115 25.9716C72.9732 25.8352 72.7668 25.767 72.4922 25.767C72.2062 25.767 71.9808 25.8305 71.8161 25.9574C71.6532 26.0824 71.5405 26.2216 71.478 26.375L70.6797 26.1932C70.7744 25.928 70.9126 25.714 71.0945 25.5511C71.2782 25.3864 71.4893 25.267 71.728 25.1932C71.9666 25.1174 72.2176 25.0795 72.4808 25.0795C72.6551 25.0795 72.8397 25.1004 73.0348 25.142C73.2318 25.1818 73.4155 25.2557 73.5859 25.3636C73.7583 25.4716 73.8994 25.6259 74.0092 25.8267C74.1191 26.0256 74.174 26.2841 74.174 26.6023V29.5H73.3445V28.9034H73.3104C73.2554 29.0133 73.1731 29.1212 73.0632 29.2273C72.9534 29.3333 72.8123 29.4214 72.6399 29.4915C72.4676 29.5616 72.2611 29.5966 72.0206 29.5966ZM72.2053 28.9148C72.4401 28.9148 72.6409 28.8684 72.8075 28.7756C72.9761 28.6828 73.1039 28.5616 73.1911 28.4119C73.2801 28.2604 73.3246 28.0985 73.3246 27.9261V27.3636C73.2943 27.3939 73.2356 27.4223 73.1484 27.4489C73.0632 27.4735 72.9657 27.4953 72.8558 27.5142C72.746 27.5312 72.639 27.5473 72.5348 27.5625C72.4306 27.5758 72.3435 27.5871 72.2734 27.5966C72.1087 27.6174 71.9581 27.6525 71.8217 27.7017C71.6873 27.7509 71.5793 27.822 71.4979 27.9148C71.4183 28.0057 71.3786 28.1269 71.3786 28.2784C71.3786 28.4886 71.4562 28.6477 71.6115 28.7557C71.7668 28.8617 71.9647 28.9148 72.2053 28.9148ZM77.3423 25.1364V25.8182H74.9588V25.1364H77.3423ZM75.598 24.0909H76.4474V28.2188C76.4474 28.3835 76.4721 28.5076 76.5213 28.5909C76.5705 28.6723 76.634 28.7282 76.7116 28.7585C76.7912 28.7869 76.8774 28.8011 76.9702 28.8011C77.0384 28.8011 77.098 28.7964 77.1491 28.7869C77.2003 28.7775 77.2401 28.7699 77.2685 28.7642L77.4219 29.4659C77.3726 29.4848 77.3026 29.5038 77.2116 29.5227C77.1207 29.5436 77.0071 29.5549 76.8707 29.5568C76.6473 29.5606 76.4389 29.5208 76.2457 29.4375C76.0526 29.3542 75.8963 29.2254 75.777 29.0511C75.6577 28.8769 75.598 28.6581 75.598 28.3949V24.0909ZM78.282 29.5V25.1364H79.1314V29.5H78.282ZM78.7109 24.4631C78.5632 24.4631 78.4363 24.4138 78.3303 24.3153C78.2261 24.215 78.174 24.0956 78.174 23.9574C78.174 23.8172 78.2261 23.6979 78.3303 23.5994C78.4363 23.4991 78.5632 23.4489 78.7109 23.4489C78.8587 23.4489 78.9846 23.4991 79.0888 23.5994C79.1948 23.6979 79.2479 23.8172 79.2479 23.9574C79.2479 24.0956 79.1948 24.215 79.0888 24.3153C78.9846 24.4138 78.8587 24.4631 78.7109 24.4631ZM82.1122 29.5881C81.7031 29.5881 81.3461 29.4943 81.0412 29.3068C80.7363 29.1193 80.4995 28.857 80.331 28.5199C80.1624 28.1828 80.0781 27.7888 80.0781 27.3381C80.0781 26.8854 80.1624 26.4896 80.331 26.1506C80.4995 25.8116 80.7363 25.5483 81.0412 25.3608C81.3461 25.1733 81.7031 25.0795 82.1122 25.0795C82.5213 25.0795 82.8783 25.1733 83.1832 25.3608C83.4882 25.5483 83.7249 25.8116 83.8935 26.1506C84.062 26.4896 84.1463 26.8854 84.1463 27.3381C84.1463 27.7888 84.062 28.1828 83.8935 28.5199C83.7249 28.857 83.4882 29.1193 83.1832 29.3068C82.8783 29.4943 82.5213 29.5881 82.1122 29.5881ZM82.1151 28.875C82.3802 28.875 82.5999 28.8049 82.7741 28.6648C82.9484 28.5246 83.0772 28.3381 83.1605 28.1051C83.2457 27.8722 83.2884 27.6155 83.2884 27.3352C83.2884 27.0568 83.2457 26.8011 83.1605 26.5682C83.0772 26.3333 82.9484 26.1449 82.7741 26.0028C82.5999 25.8608 82.3802 25.7898 82.1151 25.7898C81.848 25.7898 81.6264 25.8608 81.4503 26.0028C81.276 26.1449 81.1463 26.3333 81.0611 26.5682C80.9777 26.8011 80.9361 27.0568 80.9361 27.3352C80.9361 27.6155 80.9777 27.8722 81.0611 28.1051C81.1463 28.3381 81.276 28.5246 81.4503 28.6648C81.6264 28.8049 81.848 28.875 82.1151 28.875ZM85.9439 26.9091V29.5H85.0945V25.1364H85.9098V25.8466H85.9638C86.0642 25.6155 86.2214 25.4299 86.4354 25.2898C86.6513 25.1496 86.9231 25.0795 87.2507 25.0795C87.5481 25.0795 87.8085 25.142 88.032 25.267C88.2554 25.3902 88.4287 25.5739 88.5518 25.8182C88.675 26.0625 88.7365 26.3646 88.7365 26.7244V29.5H87.8871V26.8267C87.8871 26.5104 87.8047 26.2633 87.6399 26.0852C87.4751 25.9053 87.2488 25.8153 86.9609 25.8153C86.764 25.8153 86.5888 25.858 86.4354 25.9432C86.2839 26.0284 86.1636 26.1534 86.0746 26.3182C85.9875 26.4811 85.9439 26.678 85.9439 26.9091Z" fill="#A9B2BD"/>
<defs>
<clipPath id="clip0_150_729">
<rect width="32" height="32" fill="white"/>
</clipPath>
</defs>
</svg>
